<svg class="svg-icon" style="width: 1em; height: 1em;vertical-align: middle;fill: currentColor;overflow: hidden;" viewBox="0 0 1024 1024" version="1.1" xmlns="http://www.w3.org/2000/svg"><path d="M490.666667 938.666667C496.64 938.666667 502.186667 938.666667 507.733333 936.96 535.466667 930.986667 558.506667 912.213333 569.173333 886.613333 573.44 876.373333 576 864.853333 576 853.333333L405.333333 853.333333C405.333333 900.266667 443.733333 938.666667 490.666667 938.666667M768 448C768 317.013333 676.693333 207.36 554.666667 178.346667L554.666667 149.333333C554.666667 113.92 526.08 85.333333 490.666667 85.333333 455.253333 85.333333 426.666667 113.92 426.666667 149.333333L426.666667 178.346667C304.213333 207.36 213.333333 317.013333 213.333333 448L213.333333 682.666667 128 768 128 810.666667 853.333333 810.666667 853.333333 768 768 682.666667M852.053333 426.666667 937.386667 426.666667C930.986667 289.706667 863.573333 169.386667 761.6 91.733333L700.586667 152.746667C787.626667 213.333333 845.653333 313.6 852.053333 426.666667M280.746667 152.746667 219.733333 91.733333C117.76 169.386667 50.346667 289.706667 42.666667 426.666667L128 426.666667C135.68 313.6 193.706667 213.333333 280.746667 152.746667Z"  /></svg>